<svg xmlns="http://www.w3.org/2000/svg" width="237" height="71" fill="none"><g clip-path="url(#a)"><path fill="#2D3F50" stroke="#2D3E50" stroke-miterlimit="10" d="m14.888 58.074-5.331 8.154H9.2l-5.37-8.154v12.37H2.756V56.523h1.272l5.33 8.113 5.27-8.113h1.313v13.923h-1.053V58.074ZM35.074 63.502c-.02 3.66-2.346 7.179-7.019 7.179-4.674 0-7.022-3.54-7.022-7.22 0-3.679 2.328-7.16 7.022-7.16 4.694 0 7.04 3.44 7.02 7.199v.002Zm-12.987-.02c.02 3.142 2.009 6.205 5.965 6.205 3.957 0 5.987-3.063 5.987-6.205s-1.989-6.184-5.987-6.184c-3.997 0-5.986 2.903-5.965 6.184ZM51.164 56.522l-5.727 13.961h-1.154l-5.726-13.961h1.153l5.152 12.728 5.151-12.728h1.154-.003ZM55.66 70.442V56.52h1.054v13.923H55.66ZM62.88 56.522l9.367 11.515V56.522h1.054v13.923h-.419L63.494 58.95v11.495H62.42V56.522h.46ZM89.987 59.086c-1.213-1.192-2.903-1.791-4.476-1.791-4.077 0-6.166 2.983-6.145 6.205 0 3.28 2.088 6.104 6.145 6.104 1.493 0 3.042-.516 4.237-1.61v-3.898h-4.853v-.935h5.865v5.21c-1.451 1.452-3.183 2.248-5.251 2.248-4.733 0-7.179-3.301-7.179-7.099-.02-4.355 2.945-7.199 7.179-7.199 1.83 0 3.679.697 5.092 2.09l-.617.675h.003Z"/><path fill="#F19C23" stroke="#F19C23" stroke-miterlimit="10" d="M113.355 59.882c0-2.189-1.711-2.566-3.561-2.566-2.665 0-3.939 1.233-3.918 2.803.02 2.127 2.286 2.785 3.956 2.785h5.907v.855h-1.272v3.042c0 1.493.339 2.824 1.729 2.806v.835c-1.133.16-2.029-.596-2.327-1.77-1.015 1.65-2.606 1.95-4.098 1.95-3.382 0-5.152-1.493-5.152-3.877 0-1.732 1.413-2.945 2.806-3.402-1.452-.437-2.567-1.65-2.567-3.201 0-2.148 1.77-3.7 4.951-3.7 2.228 0 4.476.576 4.476 3.44h-.935.005Zm.239 3.877h-3.818c-2.744 0-4.137 1.552-4.137 2.983 0 1.791 1.313 2.945 4.116 2.945 1.59 0 3.839-.558 3.839-2.883v-3.045Z"/><path fill="#2D3F50" stroke="#2D3E50" stroke-miterlimit="10" d="M138.454 59.207c-1.015-1.632-2.647-1.87-4.216-1.889-1.632 0-4.217.596-4.217 2.824 0 1.77 1.909 2.189 4.258 2.626 2.685.516 5.47.994 5.47 3.997-.021 3.143-3.184 3.898-5.509 3.898-2.168 0-4.635-.894-5.709-3.024l.956-.478c.856 1.69 3.042 2.526 4.753 2.526 1.711 0 4.435-.478 4.435-2.945.02-2.089-2.287-2.546-4.574-2.983-2.546-.498-5.151-1.014-5.151-3.579-.059-2.944 3.004-3.859 5.29-3.859 1.989 0 3.72.319 5.092 2.367l-.876.516-.002.003ZM148.599 57.496h-5.031v-.956h11.138v.956h-5.03v12.946h-1.074V57.496h-.003ZM172.803 63.502c-.02 3.66-2.345 7.179-7.021 7.179s-7.022-3.54-7.022-7.22c0-3.679 2.328-7.16 7.022-7.16 4.694 0 7.039 3.44 7.021 7.199v.002Zm-12.987-.02c.02 3.142 2.009 6.205 5.966 6.205 3.956 0 5.986-3.063 5.986-6.205s-1.989-6.184-5.986-6.184c-3.998 0-5.987 2.903-5.966 6.184ZM189.093 70.442h-1.413l-4.813-5.27h-3.797v5.27h-1.074V56.519h6.125c3.024 0 4.556 2.169 4.574 4.337.02 2.266-1.473 4.257-4.515 4.257l4.913 5.332v-.003Zm-10.023-6.284h4.933c2.425 0 3.499-1.373 3.52-3.323.021-1.631-1.095-3.322-3.402-3.322h-5.051v6.644ZM204.586 70.442l-1.531-3.42h-8.314l-1.511 3.42h-1.154l6.246-13.923h1.174l6.246 13.923h-1.156Zm-1.95-4.414-3.738-8.473-3.739 8.473h7.479-.002ZM220.477 59.086c-1.213-1.192-2.904-1.791-4.476-1.791-4.078 0-6.166 2.983-6.146 6.205 0 3.28 2.089 6.104 6.146 6.104 1.493 0 3.042-.516 4.237-1.61v-3.898h-4.854v-.935h5.869v5.21c-1.452 1.452-3.184 2.248-5.252 2.248-4.733 0-7.179-3.301-7.179-7.099-.02-4.355 2.945-7.199 7.179-7.199a7.25 7.25 0 0 1 5.092 2.09l-.616.675ZM227.833 62.945h8.155v.974h-8.155v5.487h8.79v1.036h-9.846V56.519h9.607v1.015h-8.553v5.41h.002Z"/><path fill="#2D3F50" d="M23.27 46.73c12.851 0 23.27-10.418 23.27-23.27C46.54 10.61 36.12.19 23.27.19 10.418.19 0 10.61 0 23.46c0 12.852 10.418 23.27 23.27 23.27Z"/><path fill="#fff" d="M25.733 46.356c11.548-1.36 19.805-11.824 18.445-23.371C42.818 11.437 32.354 3.18 20.806 4.54 9.26 5.9 1.001 16.365 2.362 27.912c1.36 11.547 11.824 19.805 23.371 18.444Z"/><path fill="#F19C22" d="M37.217 33.344a.48.48 0 0 1-.34.589l-5.935 1.608a.479.479 0 0 1-.588-.339l-.853-3.15a.483.483 0 0 1 .34-.59l5.934-1.61a.478.478 0 0 1 .589.34l.853 3.15v.002ZM35.934 28.915a.478.478 0 0 1-.337.588l-5.935 1.608a.482.482 0 0 1-.591-.339l-.853-3.15a.483.483 0 0 1 .34-.59l5.934-1.609a.482.482 0 0 1 .591.34l.853 3.15-.002.002ZM34.596 24.545a.478.478 0 0 1-.34.588l-5.932 1.608a.482.482 0 0 1-.59-.339l-.854-3.15a.482.482 0 0 1 .34-.59l5.934-1.61a.483.483 0 0 1 .591.34l.853 3.15-.002.003ZM21.16 13.24a2.364 2.364 0 1 1-4.729 0 2.364 2.364 0 0 1 4.728 0Z"/><path fill="#F19C22" d="M22.691 11.886h-1.367v-.16c0-.986-.799-1.788-1.788-1.788h-1.318c-.987 0-1.788.8-1.788 1.788v.89h6.258a.365.365 0 1 0 0-.73h.003ZM23.918 23.065l-2.235-1.56-1.37-3.078c-.514-.837-1.449-1.405-1.896-1.503a3.804 3.804 0 0 0-.483-.16 2.52 2.52 0 0 0-3.07 1.807l-2.046 7.42a2.467 2.467 0 0 0-.033 1.102v5.031l-2.287 5.128a1.399 1.399 0 0 0 1.275 1.97c.534 0 1.046-.307 1.277-.829l2.407-5.4c.08-.18.12-.373.12-.571v-3.301c.145-.018.286-.052.425-.095l1.868 2.828.588 6.102c.07.725.678 1.264 1.39 1.264.046 0 .09 0 .136-.005a1.402 1.402 0 0 0 1.26-1.526l-.623-6.449a1.41 1.41 0 0 0-.226-.637l-2.559-3.875 1.282-4.65.342.753c.085.19.213.357.375.486l2.482 1.757c.236.188.517.277.797.277a1.282 1.282 0 0 0 .796-2.287h.008Z"/><path fill="#F19C22" d="M29.455 35.07c.054 0 .108.003.162.008l-3.222-10.724a.7.7 0 0 0-.563-.49l-2.273-.35a.697.697 0 0 0-.797.586c-.059.383.203.74.586.796l1.837.283 3.096 10.303a1.887 1.887 0 0 1 1.177-.411h-.003ZM39.355 34.48a.701.701 0 0 0-.848-.509l-7.513 1.889a1.877 1.877 0 0 1 .342 1.356l7.512-1.888a.701.701 0 0 0 .51-.848h-.003Z"/><path fill="#F19C22" d="M29.454 39.333a2.368 2.368 0 0 1-2.366-2.366 2.368 2.368 0 0 1 2.366-2.366 2.368 2.368 0 0 1 2.366 2.366 2.368 2.368 0 0 1-2.366 2.366Zm0-3.573a1.21 1.21 0 0 0-1.207 1.207 1.21 1.21 0 0 0 1.207 1.208 1.21 1.21 0 0 0 1.208-1.208 1.21 1.21 0 0 0-1.208-1.207Z"/><path fill="#2D3F50" d="m68.806 9.992 5.274 12.096h9.232L73.546.314h-9.48l-9.77 21.774h9.232l5.278-12.096ZM77.364 29.611H60.245l2.238-5.123H53.22l-9.83 21.913h9.416l3.949-8.692h24.097l3.885 8.692h9.48l-9.83-21.913h-9.26l2.236 5.123ZM120.881 33.036h1.714l6.41-8.548h-14.372l6.248 8.548ZM106.202 24.488H97.51v21.98h8.692v-21.98ZM106.202 12.955l6.677 9.133h17.929l6.798-9.067v9.067h8.692V.381h-9.943l-14.419 19.816L107.517.381H97.51v21.707h8.692v-9.133ZM146.297 24.488h-8.692v21.98h8.692v-21.98ZM154.33 46.401h34.5v-8.558h-25.875V27.44h24.953v-2.952H154.33v21.913ZM187.908 19.342h-24.953V8.74h25.875V.314h-34.5v21.774h33.578v-2.746ZM221.732 24.488h-12.934l-15.032 21.649v.264h9.745l11.785-17.317 11.785 17.317h9.743v-.264l-15.092-21.649ZM236.363.71V.313h-9.548l-11.52 17.183L203.771.314h-9.544v.395l14.837 21.38h12.397L236.363.708Z"/><path fill="#F19C22" d="M237 50.086H2.336v1.5H237v-1.5Z"/></g><defs><clipPath id="a"><path fill="#fff" d="M0 .19h237v70.62H0z"/></clipPath></defs></svg>